<mxfile host="app.diagrams.net" modified="2022-06-19T17:49:48.459Z" agent="5.0 (Windows NT 10.0; Win64; x64) AppleWebKit/537.36 (KHTML, like Gecko) Chrome/97.0.4692.71 Safari/537.36" etag="GUOR_BEfhdNDdmyD5QMF" version="20.0.1" type="github">
  <diagram id="bCjpqoXcOK5Xh0hdmK70" name="第 1 页">
    <mxGraphModel dx="2313" dy="1223" grid="1" gridSize="10" guides="1" tooltips="1" connect="1" arrows="1" fold="1" page="1" pageScale="1" pageWidth="4000" pageHeight="8000" math="0" shadow="0">
      <root>
        <mxCell id="0" />
        <mxCell id="1" parent="0" />
        <mxCell id="WVUbfzbR0bIWUbWMhhME-3" value="" style="edgeStyle=orthogonalEdgeStyle;rounded=0;orthogonalLoop=1;jettySize=auto;html=1;labelBackgroundColor=none;fontColor=default;" parent="1" source="WVUbfzbR0bIWUbWMhhME-1" target="WVUbfzbR0bIWUbWMhhME-2" edge="1">
          <mxGeometry relative="1" as="geometry" />
        </mxCell>
        <mxCell id="WVUbfzbR0bIWUbWMhhME-1" value="&lt;div style=&quot;font-family: Consolas, &amp;quot;Courier New&amp;quot;, monospace; font-size: 14px; line-height: 19px;&quot;&gt;&lt;span style=&quot;&quot;&gt;scheduleCallback创建一个优先调度任务&lt;/span&gt;&lt;/div&gt;" style="rounded=0;whiteSpace=wrap;html=1;labelBackgroundColor=none;fontColor=default;" parent="1" vertex="1">
          <mxGeometry x="1620" y="270" width="150" height="60" as="geometry" />
        </mxCell>
        <mxCell id="WVUbfzbR0bIWUbWMhhME-5" value="" style="edgeStyle=orthogonalEdgeStyle;rounded=0;orthogonalLoop=1;jettySize=auto;html=1;labelBackgroundColor=none;fontColor=default;" parent="1" source="WVUbfzbR0bIWUbWMhhME-2" target="WVUbfzbR0bIWUbWMhhME-4" edge="1">
          <mxGeometry relative="1" as="geometry" />
        </mxCell>
        <mxCell id="WVUbfzbR0bIWUbWMhhME-2" value="创建task&lt;br&gt;根据优先级设置过期时间" style="whiteSpace=wrap;html=1;rounded=0;labelBackgroundColor=none;fontColor=default;" parent="1" vertex="1">
          <mxGeometry x="1622.5" y="410" width="145" height="60" as="geometry" />
        </mxCell>
        <mxCell id="WVUbfzbR0bIWUbWMhhME-7" value="是" style="edgeStyle=orthogonalEdgeStyle;rounded=0;orthogonalLoop=1;jettySize=auto;html=1;labelBackgroundColor=none;fontColor=default;" parent="1" source="WVUbfzbR0bIWUbWMhhME-4" target="WVUbfzbR0bIWUbWMhhME-6" edge="1">
          <mxGeometry relative="1" as="geometry" />
        </mxCell>
        <mxCell id="WVUbfzbR0bIWUbWMhhME-23" value="否" style="edgeStyle=orthogonalEdgeStyle;rounded=0;orthogonalLoop=1;jettySize=auto;html=1;exitX=0;exitY=0.5;exitDx=0;exitDy=0;labelBackgroundColor=none;fontColor=default;" parent="1" source="WVUbfzbR0bIWUbWMhhME-4" target="WVUbfzbR0bIWUbWMhhME-22" edge="1">
          <mxGeometry relative="1" as="geometry">
            <mxPoint x="1483.12" y="580" as="sourcePoint" />
          </mxGeometry>
        </mxCell>
        <mxCell id="WVUbfzbR0bIWUbWMhhME-4" value="任务开始时间比现在晚？" style="rhombus;whiteSpace=wrap;html=1;rounded=0;labelBackgroundColor=none;fontColor=default;" parent="1" vertex="1">
          <mxGeometry x="1618.75" y="540" width="152.5" height="80" as="geometry" />
        </mxCell>
        <mxCell id="WVUbfzbR0bIWUbWMhhME-9" value="" style="edgeStyle=orthogonalEdgeStyle;rounded=0;orthogonalLoop=1;jettySize=auto;html=1;labelBackgroundColor=none;fontColor=default;" parent="1" source="WVUbfzbR0bIWUbWMhhME-6" target="WVUbfzbR0bIWUbWMhhME-8" edge="1">
          <mxGeometry relative="1" as="geometry" />
        </mxCell>
        <mxCell id="WVUbfzbR0bIWUbWMhhME-6" value="设置task的sortIndex（堆排序依据，其实就是开始时间）" style="whiteSpace=wrap;html=1;rounded=0;labelBackgroundColor=none;fontColor=default;" parent="1" vertex="1">
          <mxGeometry x="1612.5" y="720" width="165" height="60" as="geometry" />
        </mxCell>
        <mxCell id="WVUbfzbR0bIWUbWMhhME-11" value="" style="edgeStyle=orthogonalEdgeStyle;rounded=0;orthogonalLoop=1;jettySize=auto;html=1;labelBackgroundColor=none;fontColor=default;" parent="1" source="WVUbfzbR0bIWUbWMhhME-8" target="WVUbfzbR0bIWUbWMhhME-10" edge="1">
          <mxGeometry relative="1" as="geometry" />
        </mxCell>
        <mxCell id="WVUbfzbR0bIWUbWMhhME-8" value="task添加到定时器队列" style="whiteSpace=wrap;html=1;rounded=0;labelBackgroundColor=none;fontColor=default;" parent="1" vertex="1">
          <mxGeometry x="1627.5" y="860" width="135" height="60" as="geometry" />
        </mxCell>
        <mxCell id="WVUbfzbR0bIWUbWMhhME-15" value="是" style="edgeStyle=orthogonalEdgeStyle;rounded=0;orthogonalLoop=1;jettySize=auto;html=1;labelBackgroundColor=none;fontColor=default;" parent="1" source="WVUbfzbR0bIWUbWMhhME-10" target="WVUbfzbR0bIWUbWMhhME-14" edge="1">
          <mxGeometry relative="1" as="geometry" />
        </mxCell>
        <mxCell id="WVUbfzbR0bIWUbWMhhME-178" value="否" style="edgeStyle=orthogonalEdgeStyle;rounded=0;orthogonalLoop=1;jettySize=auto;html=1;entryX=1;entryY=0.5;entryDx=0;entryDy=0;labelBackgroundColor=none;fontColor=default;startArrow=none;startFill=0;" parent="1" source="WVUbfzbR0bIWUbWMhhME-10" target="WVUbfzbR0bIWUbWMhhME-35" edge="1">
          <mxGeometry x="-0.9342" relative="1" as="geometry">
            <Array as="points">
              <mxPoint x="1490" y="1035" />
              <mxPoint x="1490" y="1515" />
            </Array>
            <mxPoint as="offset" />
          </mxGeometry>
        </mxCell>
        <mxCell id="WVUbfzbR0bIWUbWMhhME-10" value="任务队列是否为空，并且定时器队列&lt;br&gt;队首task就是当前加入的task？" style="rhombus;whiteSpace=wrap;html=1;rounded=0;labelBackgroundColor=none;fontColor=default;" parent="1" vertex="1">
          <mxGeometry x="1541.25" y="990" width="307.5" height="90" as="geometry" />
        </mxCell>
        <mxCell id="WVUbfzbR0bIWUbWMhhME-17" value="是" style="edgeStyle=orthogonalEdgeStyle;rounded=0;orthogonalLoop=1;jettySize=auto;html=1;labelBackgroundColor=none;fontColor=default;" parent="1" source="WVUbfzbR0bIWUbWMhhME-14" target="WVUbfzbR0bIWUbWMhhME-16" edge="1">
          <mxGeometry relative="1" as="geometry" />
        </mxCell>
        <mxCell id="WVUbfzbR0bIWUbWMhhME-19" value="否" style="edgeStyle=orthogonalEdgeStyle;rounded=0;orthogonalLoop=1;jettySize=auto;html=1;labelBackgroundColor=none;fontColor=default;" parent="1" source="WVUbfzbR0bIWUbWMhhME-14" target="WVUbfzbR0bIWUbWMhhME-18" edge="1">
          <mxGeometry relative="1" as="geometry" />
        </mxCell>
        <mxCell id="WVUbfzbR0bIWUbWMhhME-14" value="当前是否存在计划定时任务调度？" style="rhombus;whiteSpace=wrap;html=1;rounded=0;labelBackgroundColor=none;fontColor=default;" parent="1" vertex="1">
          <mxGeometry x="1541.25" y="1160" width="307.5" height="90" as="geometry" />
        </mxCell>
        <mxCell id="WVUbfzbR0bIWUbWMhhME-21" value="" style="edgeStyle=orthogonalEdgeStyle;rounded=0;orthogonalLoop=1;jettySize=auto;html=1;labelBackgroundColor=none;fontColor=default;" parent="1" source="WVUbfzbR0bIWUbWMhhME-16" target="WVUbfzbR0bIWUbWMhhME-20" edge="1">
          <mxGeometry relative="1" as="geometry" />
        </mxCell>
        <mxCell id="WVUbfzbR0bIWUbWMhhME-16" value="取消当前计划定时任务调度clearTimeout" style="whiteSpace=wrap;html=1;rounded=0;labelBackgroundColor=none;fontColor=default;" parent="1" vertex="1">
          <mxGeometry x="1635" y="1345" width="120" height="60" as="geometry" />
        </mxCell>
        <mxCell id="WVUbfzbR0bIWUbWMhhME-34" style="edgeStyle=orthogonalEdgeStyle;rounded=0;orthogonalLoop=1;jettySize=auto;html=1;entryX=1;entryY=0.5;entryDx=0;entryDy=0;labelBackgroundColor=none;fontColor=default;" parent="1" source="WVUbfzbR0bIWUbWMhhME-18" target="WVUbfzbR0bIWUbWMhhME-20" edge="1">
          <mxGeometry relative="1" as="geometry">
            <Array as="points">
              <mxPoint x="2160" y="1515" />
            </Array>
          </mxGeometry>
        </mxCell>
        <mxCell id="WVUbfzbR0bIWUbWMhhME-18" value="&lt;div style=&quot;font-family: Consolas, &amp;quot;Courier New&amp;quot;, monospace; font-size: 14px; line-height: 19px;&quot;&gt;isHostTimeoutScheduled=true&lt;/div&gt;&lt;div style=&quot;font-family: Consolas, &amp;quot;Courier New&amp;quot;, monospace; font-size: 14px; line-height: 19px;&quot;&gt;标记当前开启一个计划定时任务调度&lt;/div&gt;" style="whiteSpace=wrap;html=1;rounded=0;labelBackgroundColor=none;fontColor=default;" parent="1" vertex="1">
          <mxGeometry x="2022.5" y="1175" width="257.5" height="60" as="geometry" />
        </mxCell>
        <mxCell id="WVUbfzbR0bIWUbWMhhME-36" value="" style="edgeStyle=orthogonalEdgeStyle;rounded=0;orthogonalLoop=1;jettySize=auto;html=1;labelBackgroundColor=none;fontColor=default;" parent="1" source="WVUbfzbR0bIWUbWMhhME-20" target="WVUbfzbR0bIWUbWMhhME-35" edge="1">
          <mxGeometry relative="1" as="geometry" />
        </mxCell>
        <mxCell id="WVUbfzbR0bIWUbWMhhME-43" value="" style="edgeStyle=orthogonalEdgeStyle;rounded=0;orthogonalLoop=1;jettySize=auto;html=1;labelBackgroundColor=none;fontColor=default;dashed=1;" parent="1" source="WVUbfzbR0bIWUbWMhhME-20" target="WVUbfzbR0bIWUbWMhhME-42" edge="1">
          <mxGeometry relative="1" as="geometry" />
        </mxCell>
        <mxCell id="WVUbfzbR0bIWUbWMhhME-44" value="定时时间到，执行定时器" style="edgeLabel;html=1;align=center;verticalAlign=middle;resizable=0;points=[];fontColor=default;labelBackgroundColor=none;" parent="WVUbfzbR0bIWUbWMhhME-43" vertex="1" connectable="0">
          <mxGeometry x="-0.3157" y="-1" relative="1" as="geometry">
            <mxPoint x="-1" y="151" as="offset" />
          </mxGeometry>
        </mxCell>
        <mxCell id="WVUbfzbR0bIWUbWMhhME-20" value="设置一个定时器，定时时长为当前最早执行的任务开始时间差&lt;br&gt;&lt;div style=&quot;font-family: Consolas, &amp;quot;Courier New&amp;quot;, monospace; font-size: 14px; line-height: 19px;&quot;&gt;&lt;span style=&quot;&quot;&gt;requestHostTimeout&lt;/span&gt;&lt;/div&gt;" style="whiteSpace=wrap;html=1;rounded=0;labelBackgroundColor=none;fontColor=default;" parent="1" vertex="1">
          <mxGeometry x="1602.5" y="1485" width="185" height="60" as="geometry" />
        </mxCell>
        <mxCell id="WVUbfzbR0bIWUbWMhhME-25" value="" style="edgeStyle=orthogonalEdgeStyle;rounded=0;orthogonalLoop=1;jettySize=auto;html=1;labelBackgroundColor=none;fontColor=default;" parent="1" source="WVUbfzbR0bIWUbWMhhME-22" target="WVUbfzbR0bIWUbWMhhME-24" edge="1">
          <mxGeometry relative="1" as="geometry" />
        </mxCell>
        <mxCell id="WVUbfzbR0bIWUbWMhhME-22" value="任务开始时间已过，需要马上调用，设置task的sortIndex为过期时间" style="whiteSpace=wrap;html=1;rounded=0;labelBackgroundColor=none;fontColor=default;" parent="1" vertex="1">
          <mxGeometry x="1244.37" y="550" width="142.5" height="60" as="geometry" />
        </mxCell>
        <mxCell id="WVUbfzbR0bIWUbWMhhME-27" value="" style="edgeStyle=orthogonalEdgeStyle;rounded=0;orthogonalLoop=1;jettySize=auto;html=1;labelBackgroundColor=none;fontColor=default;" parent="1" source="WVUbfzbR0bIWUbWMhhME-24" target="WVUbfzbR0bIWUbWMhhME-26" edge="1">
          <mxGeometry relative="1" as="geometry" />
        </mxCell>
        <mxCell id="WVUbfzbR0bIWUbWMhhME-24" value="添加到任务队列中，等待调用" style="whiteSpace=wrap;html=1;rounded=0;labelBackgroundColor=none;fontColor=default;" parent="1" vertex="1">
          <mxGeometry x="1255.62" y="690" width="120" height="60" as="geometry" />
        </mxCell>
        <mxCell id="WVUbfzbR0bIWUbWMhhME-29" value="否" style="edgeStyle=orthogonalEdgeStyle;rounded=0;orthogonalLoop=1;jettySize=auto;html=1;labelBackgroundColor=none;fontColor=default;" parent="1" source="WVUbfzbR0bIWUbWMhhME-26" target="WVUbfzbR0bIWUbWMhhME-28" edge="1">
          <mxGeometry relative="1" as="geometry" />
        </mxCell>
        <mxCell id="WVUbfzbR0bIWUbWMhhME-37" value="是" style="edgeStyle=orthogonalEdgeStyle;rounded=0;orthogonalLoop=1;jettySize=auto;html=1;entryX=0;entryY=0.5;entryDx=0;entryDy=0;labelBackgroundColor=none;fontColor=default;exitX=0;exitY=0.5;exitDx=0;exitDy=0;" parent="1" source="WVUbfzbR0bIWUbWMhhME-26" target="WVUbfzbR0bIWUbWMhhME-35" edge="1">
          <mxGeometry x="-0.5382" relative="1" as="geometry">
            <Array as="points">
              <mxPoint x="1490" y="870" />
              <mxPoint x="1490" y="1515" />
            </Array>
            <mxPoint as="offset" />
          </mxGeometry>
        </mxCell>
        <mxCell id="WVUbfzbR0bIWUbWMhhME-26" value="当前是否存在计划调用任务调度，&lt;br&gt;或者是否处于一个任务调用中？" style="rhombus;whiteSpace=wrap;html=1;rounded=0;labelBackgroundColor=none;fontColor=default;" parent="1" vertex="1">
          <mxGeometry x="1200" y="820" width="231.25" height="100" as="geometry" />
        </mxCell>
        <mxCell id="WVUbfzbR0bIWUbWMhhME-31" value="" style="edgeStyle=orthogonalEdgeStyle;rounded=0;orthogonalLoop=1;jettySize=auto;html=1;labelBackgroundColor=none;fontColor=default;entryX=0;entryY=0.5;entryDx=0;entryDy=0;dashed=1;" parent="1" source="WVUbfzbR0bIWUbWMhhME-28" target="WVUbfzbR0bIWUbWMhhME-53" edge="1">
          <mxGeometry relative="1" as="geometry">
            <mxPoint x="1315.666666666667" y="1130" as="targetPoint" />
            <Array as="points">
              <mxPoint x="1060" y="1020" />
              <mxPoint x="1060" y="2560" />
            </Array>
          </mxGeometry>
        </mxCell>
        <mxCell id="C-CajQuC5ZYosWoL7ctd-1" style="edgeStyle=orthogonalEdgeStyle;rounded=0;orthogonalLoop=1;jettySize=auto;html=1;" edge="1" parent="1" source="WVUbfzbR0bIWUbWMhhME-28" target="WVUbfzbR0bIWUbWMhhME-35">
          <mxGeometry relative="1" as="geometry" />
        </mxCell>
        <mxCell id="WVUbfzbR0bIWUbWMhhME-28" value="&lt;div style=&quot;font-family: Consolas, &amp;quot;Courier New&amp;quot;, monospace; font-size: 14px; line-height: 19px;&quot;&gt;isHostCallbackScheduled=true，设置计划任务调用调度&lt;/div&gt;" style="whiteSpace=wrap;html=1;rounded=0;labelBackgroundColor=none;fontColor=default;" parent="1" vertex="1">
          <mxGeometry x="1197.03" y="990" width="237.19" height="60" as="geometry" />
        </mxCell>
        <mxCell id="WVUbfzbR0bIWUbWMhhME-35" value="返回新建task" style="whiteSpace=wrap;html=1;rounded=0;labelBackgroundColor=none;fontColor=default;" parent="1" vertex="1">
          <mxGeometry x="1255.63" y="1485" width="120" height="60" as="geometry" />
        </mxCell>
        <mxCell id="WVUbfzbR0bIWUbWMhhME-177" style="edgeStyle=orthogonalEdgeStyle;rounded=0;orthogonalLoop=1;jettySize=auto;html=1;entryX=0.5;entryY=0;entryDx=0;entryDy=0;labelBackgroundColor=none;fontColor=default;startArrow=none;startFill=0;dashed=1;exitX=0.5;exitY=1;exitDx=0;exitDy=0;" parent="1" source="WVUbfzbR0bIWUbWMhhME-35" target="WVUbfzbR0bIWUbWMhhME-42" edge="1">
          <mxGeometry relative="1" as="geometry">
            <mxPoint x="1375.6300000000006" y="1655" as="sourcePoint" />
            <Array as="points">
              <mxPoint x="1316" y="1670" />
              <mxPoint x="1695" y="1670" />
            </Array>
          </mxGeometry>
        </mxCell>
        <mxCell id="WVUbfzbR0bIWUbWMhhME-46" value="" style="edgeStyle=orthogonalEdgeStyle;rounded=0;orthogonalLoop=1;jettySize=auto;html=1;labelBackgroundColor=none;fontColor=default;" parent="1" source="WVUbfzbR0bIWUbWMhhME-42" target="WVUbfzbR0bIWUbWMhhME-45" edge="1">
          <mxGeometry relative="1" as="geometry" />
        </mxCell>
        <mxCell id="WVUbfzbR0bIWUbWMhhME-42" value="取消&lt;span style=&quot;font-family: Consolas, &amp;quot;Courier New&amp;quot;, monospace; font-size: 14px;&quot;&gt;isHostTimeoutScheduled=false标识&lt;br&gt;表示目前没有定时任务调度&lt;br&gt;&lt;/span&gt;" style="whiteSpace=wrap;html=1;fontColor=default;rounded=0;labelBackgroundColor=none;" parent="1" vertex="1">
          <mxGeometry x="1552.5" y="1820" width="285" height="60" as="geometry" />
        </mxCell>
        <mxCell id="WVUbfzbR0bIWUbWMhhME-48" value="" style="edgeStyle=orthogonalEdgeStyle;rounded=0;orthogonalLoop=1;jettySize=auto;html=1;labelBackgroundColor=none;fontColor=default;" parent="1" source="WVUbfzbR0bIWUbWMhhME-45" target="WVUbfzbR0bIWUbWMhhME-47" edge="1">
          <mxGeometry relative="1" as="geometry" />
        </mxCell>
        <mxCell id="WVUbfzbR0bIWUbWMhhME-45" value="根据当前时间整理小顶堆" style="whiteSpace=wrap;html=1;fontColor=default;rounded=0;labelBackgroundColor=none;" parent="1" vertex="1">
          <mxGeometry x="1602.5" y="1930" width="185" height="60" as="geometry" />
        </mxCell>
        <mxCell id="WVUbfzbR0bIWUbWMhhME-50" value="否" style="edgeStyle=orthogonalEdgeStyle;rounded=0;orthogonalLoop=1;jettySize=auto;html=1;labelBackgroundColor=none;fontColor=default;" parent="1" source="WVUbfzbR0bIWUbWMhhME-47" target="WVUbfzbR0bIWUbWMhhME-49" edge="1">
          <mxGeometry relative="1" as="geometry" />
        </mxCell>
        <mxCell id="WVUbfzbR0bIWUbWMhhME-142" value="是" style="edgeStyle=orthogonalEdgeStyle;rounded=0;orthogonalLoop=1;jettySize=auto;html=1;labelBackgroundColor=none;fontColor=default;entryX=0.5;entryY=0;entryDx=0;entryDy=0;dashed=1;" parent="1" source="WVUbfzbR0bIWUbWMhhME-47" target="WVUbfzbR0bIWUbWMhhME-42" edge="1">
          <mxGeometry relative="1" as="geometry">
            <mxPoint x="1980" y="2100" as="targetPoint" />
            <Array as="points">
              <mxPoint x="1990" y="2100" />
              <mxPoint x="1990" y="1770" />
              <mxPoint x="1695" y="1770" />
            </Array>
          </mxGeometry>
        </mxCell>
        <mxCell id="WVUbfzbR0bIWUbWMhhME-47" value="当前是否存在&lt;span style=&quot;font-family: Consolas, &amp;quot;Courier New&amp;quot;, monospace; font-size: 14px;&quot;&gt;isHostCallbackScheduled计划调用任务调度？&lt;/span&gt;" style="rhombus;whiteSpace=wrap;html=1;fontColor=default;rounded=0;labelBackgroundColor=none;" parent="1" vertex="1">
          <mxGeometry x="1562.5" y="2060" width="265" height="80" as="geometry" />
        </mxCell>
        <mxCell id="WVUbfzbR0bIWUbWMhhME-52" value="否" style="edgeStyle=orthogonalEdgeStyle;rounded=0;orthogonalLoop=1;jettySize=auto;html=1;labelBackgroundColor=none;fontColor=default;" parent="1" source="WVUbfzbR0bIWUbWMhhME-49" target="WVUbfzbR0bIWUbWMhhME-51" edge="1">
          <mxGeometry relative="1" as="geometry" />
        </mxCell>
        <mxCell id="WVUbfzbR0bIWUbWMhhME-64" value="是" style="edgeStyle=orthogonalEdgeStyle;rounded=0;orthogonalLoop=1;jettySize=auto;html=1;labelBackgroundColor=none;fontColor=default;" parent="1" source="WVUbfzbR0bIWUbWMhhME-49" target="WVUbfzbR0bIWUbWMhhME-63" edge="1">
          <mxGeometry relative="1" as="geometry" />
        </mxCell>
        <mxCell id="WVUbfzbR0bIWUbWMhhME-49" value="当前任务队列是否为空？" style="rhombus;whiteSpace=wrap;html=1;fontColor=default;rounded=0;labelBackgroundColor=none;" parent="1" vertex="1">
          <mxGeometry x="1602.5" y="2220" width="185" height="80" as="geometry" />
        </mxCell>
        <mxCell id="WVUbfzbR0bIWUbWMhhME-54" value="" style="edgeStyle=orthogonalEdgeStyle;rounded=0;orthogonalLoop=1;jettySize=auto;html=1;labelBackgroundColor=none;fontColor=default;" parent="1" source="WVUbfzbR0bIWUbWMhhME-51" target="WVUbfzbR0bIWUbWMhhME-53" edge="1">
          <mxGeometry relative="1" as="geometry" />
        </mxCell>
        <mxCell id="WVUbfzbR0bIWUbWMhhME-51" value="设置计划调用任务调度&lt;span style=&quot;font-family: Consolas, &amp;quot;Courier New&amp;quot;, monospace; font-size: 14px;&quot;&gt;isHostCallbackScheduled=true&lt;br&gt;表示存在调用任务调度&lt;br&gt;&lt;/span&gt;" style="whiteSpace=wrap;html=1;fontColor=default;rounded=0;labelBackgroundColor=none;" parent="1" vertex="1">
          <mxGeometry x="1567.5" y="2390" width="255" height="60" as="geometry" />
        </mxCell>
        <mxCell id="WVUbfzbR0bIWUbWMhhME-58" value="" style="edgeStyle=orthogonalEdgeStyle;rounded=0;orthogonalLoop=1;jettySize=auto;html=1;labelBackgroundColor=none;fontColor=default;" parent="1" source="WVUbfzbR0bIWUbWMhhME-53" target="WVUbfzbR0bIWUbWMhhME-57" edge="1">
          <mxGeometry relative="1" as="geometry" />
        </mxCell>
        <mxCell id="WVUbfzbR0bIWUbWMhhME-53" value="&lt;div style=&quot;font-family: Consolas, &amp;quot;Courier New&amp;quot;, monospace; font-size: 14px; line-height: 19px;&quot;&gt;&lt;span style=&quot;&quot;&gt;requestHostCallback&lt;/span&gt;&lt;/div&gt;&lt;div style=&quot;font-family: Consolas, &amp;quot;Courier New&amp;quot;, monospace; font-size: 14px; line-height: 19px;&quot;&gt;&lt;span style=&quot;&quot;&gt;请求开始调用任务&lt;/span&gt;&lt;/div&gt;&lt;div style=&quot;font-family: Consolas, &amp;quot;Courier New&amp;quot;, monospace; font-size: 14px; line-height: 19px;&quot;&gt;&lt;span style=&quot;&quot;&gt;设置&lt;/span&gt;&lt;span style=&quot;&quot;&gt;scheduledHostCallback为当前回调wrapper（flushWork）&lt;/span&gt;&lt;/div&gt;" style="whiteSpace=wrap;html=1;fontColor=default;rounded=0;labelBackgroundColor=none;" parent="1" vertex="1">
          <mxGeometry x="1464.38" y="2530" width="461.25" height="60" as="geometry" />
        </mxCell>
        <mxCell id="WVUbfzbR0bIWUbWMhhME-60" value="否" style="edgeStyle=orthogonalEdgeStyle;rounded=0;orthogonalLoop=1;jettySize=auto;html=1;labelBackgroundColor=none;fontColor=default;" parent="1" source="WVUbfzbR0bIWUbWMhhME-57" target="WVUbfzbR0bIWUbWMhhME-59" edge="1">
          <mxGeometry relative="1" as="geometry" />
        </mxCell>
        <mxCell id="WVUbfzbR0bIWUbWMhhME-143" style="edgeStyle=orthogonalEdgeStyle;rounded=0;orthogonalLoop=1;jettySize=auto;html=1;entryX=0.5;entryY=0;entryDx=0;entryDy=0;dashed=1;labelBackgroundColor=none;fontColor=default;" parent="1" source="WVUbfzbR0bIWUbWMhhME-57" target="WVUbfzbR0bIWUbWMhhME-42" edge="1">
          <mxGeometry relative="1" as="geometry">
            <Array as="points">
              <mxPoint x="1990" y="2700" />
              <mxPoint x="1990" y="1770" />
              <mxPoint x="1695" y="1770" />
            </Array>
          </mxGeometry>
        </mxCell>
        <mxCell id="WVUbfzbR0bIWUbWMhhME-57" value="当前是否处于异步任务调度中？" style="rhombus;whiteSpace=wrap;html=1;fontColor=default;rounded=0;labelBackgroundColor=none;" parent="1" vertex="1">
          <mxGeometry x="1587.5" y="2660" width="215" height="80" as="geometry" />
        </mxCell>
        <mxCell id="WVUbfzbR0bIWUbWMhhME-62" value="" style="edgeStyle=orthogonalEdgeStyle;rounded=0;orthogonalLoop=1;jettySize=auto;html=1;labelBackgroundColor=none;fontColor=default;" parent="1" source="WVUbfzbR0bIWUbWMhhME-59" target="WVUbfzbR0bIWUbWMhhME-61" edge="1">
          <mxGeometry relative="1" as="geometry" />
        </mxCell>
        <mxCell id="WVUbfzbR0bIWUbWMhhME-59" value="设置&lt;span style=&quot;font-family: Consolas, &amp;quot;Courier New&amp;quot;, monospace; font-size: 14px;&quot;&gt;isMessageLoopRunning=true&lt;br&gt;表示当前处于异步调度中&lt;br&gt;&lt;/span&gt;" style="whiteSpace=wrap;html=1;fontColor=default;rounded=0;labelBackgroundColor=none;" parent="1" vertex="1">
          <mxGeometry x="1577.5" y="2830" width="235" height="60" as="geometry" />
        </mxCell>
        <mxCell id="WVUbfzbR0bIWUbWMhhME-73" value="1..n次eventLoop，执行异步任务" style="edgeStyle=orthogonalEdgeStyle;rounded=0;orthogonalLoop=1;jettySize=auto;html=1;labelBackgroundColor=none;fontColor=default;entryX=0.5;entryY=0;entryDx=0;entryDy=0;dashed=1;" parent="1" source="WVUbfzbR0bIWUbWMhhME-61" target="WVUbfzbR0bIWUbWMhhME-145" edge="1">
          <mxGeometry relative="1" as="geometry">
            <Array as="points">
              <mxPoint x="1693" y="3050" />
              <mxPoint x="1693" y="3050" />
            </Array>
          </mxGeometry>
        </mxCell>
        <mxCell id="WVUbfzbR0bIWUbWMhhME-61" value="&lt;div style=&quot;font-family: Consolas, &amp;quot;Courier New&amp;quot;, monospace; font-size: 14px; line-height: 19px;&quot;&gt;&lt;span style=&quot;&quot;&gt;schedulePerformWorkUntilDeadline&lt;/span&gt;&lt;/div&gt;&lt;div style=&quot;font-family: Consolas, &amp;quot;Courier New&amp;quot;, monospace; font-size: 14px; line-height: 19px;&quot;&gt;&lt;font&gt;设置一个立刻开始的异步任务&lt;/font&gt;&lt;/div&gt;&lt;div style=&quot;font-family: Consolas, &amp;quot;Courier New&amp;quot;, monospace; font-size: 14px; line-height: 19px;&quot;&gt;&lt;div style=&quot;line-height: 19px;&quot;&gt;performWorkUntilDeadline&lt;/div&gt;&lt;/div&gt;" style="whiteSpace=wrap;html=1;fontColor=default;rounded=0;labelBackgroundColor=none;" parent="1" vertex="1">
          <mxGeometry x="1547.5" y="2970" width="295" height="60" as="geometry" />
        </mxCell>
        <mxCell id="WVUbfzbR0bIWUbWMhhME-66" value="" style="edgeStyle=orthogonalEdgeStyle;rounded=0;orthogonalLoop=1;jettySize=auto;html=1;labelBackgroundColor=none;fontColor=default;" parent="1" source="WVUbfzbR0bIWUbWMhhME-63" target="WVUbfzbR0bIWUbWMhhME-65" edge="1">
          <mxGeometry relative="1" as="geometry" />
        </mxCell>
        <mxCell id="WVUbfzbR0bIWUbWMhhME-63" value="从定时任务队列中获取最早到期的任务" style="whiteSpace=wrap;html=1;fontColor=default;rounded=0;labelBackgroundColor=none;" parent="1" vertex="1">
          <mxGeometry x="1287.81" y="2230" width="120" height="60" as="geometry" />
        </mxCell>
        <mxCell id="WVUbfzbR0bIWUbWMhhME-68" value="是" style="edgeStyle=orthogonalEdgeStyle;rounded=0;orthogonalLoop=1;jettySize=auto;html=1;labelBackgroundColor=none;fontColor=default;" parent="1" source="WVUbfzbR0bIWUbWMhhME-65" target="WVUbfzbR0bIWUbWMhhME-67" edge="1">
          <mxGeometry relative="1" as="geometry" />
        </mxCell>
        <mxCell id="WVUbfzbR0bIWUbWMhhME-205" style="edgeStyle=orthogonalEdgeStyle;rounded=0;orthogonalLoop=1;jettySize=auto;html=1;entryX=0.5;entryY=0;entryDx=0;entryDy=0;labelBackgroundColor=none;fontColor=default;startArrow=none;startFill=0;dashed=1;" parent="1" source="WVUbfzbR0bIWUbWMhhME-65" target="WVUbfzbR0bIWUbWMhhME-42" edge="1">
          <mxGeometry relative="1" as="geometry">
            <Array as="points">
              <mxPoint x="1146" y="1770" />
              <mxPoint x="1695" y="1770" />
            </Array>
          </mxGeometry>
        </mxCell>
        <mxCell id="WVUbfzbR0bIWUbWMhhME-206" value="否" style="edgeLabel;html=1;align=center;verticalAlign=middle;resizable=0;points=[];fontColor=default;" parent="WVUbfzbR0bIWUbWMhhME-205" vertex="1" connectable="0">
          <mxGeometry x="-0.7523" y="5" relative="1" as="geometry">
            <mxPoint as="offset" />
          </mxGeometry>
        </mxCell>
        <mxCell id="WVUbfzbR0bIWUbWMhhME-65" value="任务是否存在？" style="rhombus;whiteSpace=wrap;html=1;fontColor=default;rounded=0;labelBackgroundColor=none;" parent="1" vertex="1">
          <mxGeometry x="1070.62" y="2220" width="150" height="80" as="geometry" />
        </mxCell>
        <mxCell id="WVUbfzbR0bIWUbWMhhME-71" style="edgeStyle=orthogonalEdgeStyle;rounded=0;orthogonalLoop=1;jettySize=auto;html=1;entryX=0.5;entryY=0;entryDx=0;entryDy=0;labelBackgroundColor=none;fontColor=default;dashed=1;exitX=0.5;exitY=0;exitDx=0;exitDy=0;" parent="1" source="WVUbfzbR0bIWUbWMhhME-67" target="WVUbfzbR0bIWUbWMhhME-42" edge="1">
          <mxGeometry relative="1" as="geometry">
            <Array as="points">
              <mxPoint x="840" y="2230" />
              <mxPoint x="840" y="1770" />
              <mxPoint x="1695" y="1770" />
            </Array>
          </mxGeometry>
        </mxCell>
        <mxCell id="WVUbfzbR0bIWUbWMhhME-67" value="&lt;span style=&quot;&quot;&gt;设置一个定时器，定时时长为当前最早执行的任务开始时间差&lt;/span&gt;&lt;br style=&quot;&quot;&gt;&lt;div style=&quot;font-family: Consolas, &amp;quot;Courier New&amp;quot;, monospace; font-size: 14px; line-height: 19px;&quot;&gt;&lt;span style=&quot;&quot;&gt;requestHostTimeout&lt;/span&gt;&lt;/div&gt;" style="whiteSpace=wrap;html=1;fontColor=default;rounded=0;labelBackgroundColor=none;" parent="1" vertex="1">
          <mxGeometry x="710.62" y="2230" width="240" height="60" as="geometry" />
        </mxCell>
        <mxCell id="WVUbfzbR0bIWUbWMhhME-75" value="" style="edgeStyle=orthogonalEdgeStyle;rounded=0;orthogonalLoop=1;jettySize=auto;html=1;labelBackgroundColor=none;fontColor=default;" parent="1" source="WVUbfzbR0bIWUbWMhhME-72" target="WVUbfzbR0bIWUbWMhhME-74" edge="1">
          <mxGeometry relative="1" as="geometry" />
        </mxCell>
        <mxCell id="WVUbfzbR0bIWUbWMhhME-72" value="&lt;div style=&quot;font-family: Consolas, &amp;quot;Courier New&amp;quot;, monospace; font-size: 14px; line-height: 19px;&quot;&gt;执行flushWork，开始调用，清空任务&lt;/div&gt;" style="whiteSpace=wrap;html=1;fontColor=default;rounded=0;labelBackgroundColor=none;" parent="1" vertex="1">
          <mxGeometry x="1563.75" y="4160" width="262.5" height="60" as="geometry" />
        </mxCell>
        <mxCell id="WVUbfzbR0bIWUbWMhhME-77" value="" style="edgeStyle=orthogonalEdgeStyle;rounded=0;orthogonalLoop=1;jettySize=auto;html=1;labelBackgroundColor=none;fontColor=default;" parent="1" source="WVUbfzbR0bIWUbWMhhME-74" target="WVUbfzbR0bIWUbWMhhME-76" edge="1">
          <mxGeometry relative="1" as="geometry" />
        </mxCell>
        <mxCell id="WVUbfzbR0bIWUbWMhhME-74" value="重置&lt;span style=&quot;font-family: Consolas, &amp;quot;Courier New&amp;quot;, monospace; font-size: 14px;&quot;&gt;isHostCallbackScheduled计划回调调度&lt;/span&gt;" style="whiteSpace=wrap;html=1;fontColor=default;rounded=0;labelBackgroundColor=none;" parent="1" vertex="1">
          <mxGeometry x="1577.5" y="4300" width="235" height="60" as="geometry" />
        </mxCell>
        <mxCell id="WVUbfzbR0bIWUbWMhhME-79" value="是" style="edgeStyle=orthogonalEdgeStyle;rounded=0;orthogonalLoop=1;jettySize=auto;html=1;labelBackgroundColor=none;fontColor=default;" parent="1" source="WVUbfzbR0bIWUbWMhhME-76" target="WVUbfzbR0bIWUbWMhhME-78" edge="1">
          <mxGeometry relative="1" as="geometry" />
        </mxCell>
        <mxCell id="WVUbfzbR0bIWUbWMhhME-82" value="否" style="edgeStyle=orthogonalEdgeStyle;rounded=0;orthogonalLoop=1;jettySize=auto;html=1;entryX=0;entryY=0.5;entryDx=0;entryDy=0;labelBackgroundColor=none;fontColor=default;" parent="1" source="WVUbfzbR0bIWUbWMhhME-76" target="WVUbfzbR0bIWUbWMhhME-80" edge="1">
          <mxGeometry relative="1" as="geometry">
            <Array as="points">
              <mxPoint x="1500" y="4470" />
              <mxPoint x="1500" y="4770" />
            </Array>
          </mxGeometry>
        </mxCell>
        <mxCell id="WVUbfzbR0bIWUbWMhhME-76" value="是否存在计划定时任务调度？" style="rhombus;whiteSpace=wrap;html=1;fontColor=default;rounded=0;labelBackgroundColor=none;" parent="1" vertex="1">
          <mxGeometry x="1567.5" y="4430" width="255" height="80" as="geometry" />
        </mxCell>
        <mxCell id="WVUbfzbR0bIWUbWMhhME-81" value="" style="edgeStyle=orthogonalEdgeStyle;rounded=0;orthogonalLoop=1;jettySize=auto;html=1;labelBackgroundColor=none;fontColor=default;" parent="1" source="WVUbfzbR0bIWUbWMhhME-78" target="WVUbfzbR0bIWUbWMhhME-80" edge="1">
          <mxGeometry relative="1" as="geometry" />
        </mxCell>
        <mxCell id="WVUbfzbR0bIWUbWMhhME-78" value="重置&lt;span style=&quot;font-family: Consolas, &amp;quot;Courier New&amp;quot;, monospace; font-size: 14px;&quot;&gt;isHostTimeoutScheduled&lt;br&gt;取消这个计划定时调度&lt;br&gt;&lt;/span&gt;" style="whiteSpace=wrap;html=1;fontColor=default;rounded=0;labelBackgroundColor=none;" parent="1" vertex="1">
          <mxGeometry x="1582.5" y="4600" width="225" height="60" as="geometry" />
        </mxCell>
        <mxCell id="WVUbfzbR0bIWUbWMhhME-84" value="" style="edgeStyle=orthogonalEdgeStyle;rounded=0;orthogonalLoop=1;jettySize=auto;html=1;labelBackgroundColor=none;fontColor=default;" parent="1" source="WVUbfzbR0bIWUbWMhhME-80" target="WVUbfzbR0bIWUbWMhhME-83" edge="1">
          <mxGeometry relative="1" as="geometry" />
        </mxCell>
        <mxCell id="WVUbfzbR0bIWUbWMhhME-80" value="标记&lt;span style=&quot;font-family: Consolas, &amp;quot;Courier New&amp;quot;, monospace; font-size: 14px;&quot;&gt;isPerformingWork&lt;br&gt;表示目前正在批量调用任务&lt;br&gt;&lt;/span&gt;" style="whiteSpace=wrap;html=1;fontColor=default;rounded=0;labelBackgroundColor=none;" parent="1" vertex="1">
          <mxGeometry x="1592.5" y="4740" width="205" height="60" as="geometry" />
        </mxCell>
        <mxCell id="WVUbfzbR0bIWUbWMhhME-86" value="" style="edgeStyle=orthogonalEdgeStyle;rounded=0;orthogonalLoop=1;jettySize=auto;html=1;labelBackgroundColor=none;fontColor=default;" parent="1" source="WVUbfzbR0bIWUbWMhhME-83" target="WVUbfzbR0bIWUbWMhhME-85" edge="1">
          <mxGeometry relative="1" as="geometry" />
        </mxCell>
        <mxCell id="WVUbfzbR0bIWUbWMhhME-83" value="保存当前优先级" style="whiteSpace=wrap;html=1;fontColor=default;rounded=0;labelBackgroundColor=none;" parent="1" vertex="1">
          <mxGeometry x="1635" y="4880" width="120" height="60" as="geometry" />
        </mxCell>
        <mxCell id="WVUbfzbR0bIWUbWMhhME-90" value="执行完成" style="edgeStyle=orthogonalEdgeStyle;rounded=0;orthogonalLoop=1;jettySize=auto;html=1;entryX=0.5;entryY=0;entryDx=0;entryDy=0;labelBackgroundColor=none;fontColor=default;" parent="1" source="WVUbfzbR0bIWUbWMhhME-85" target="WVUbfzbR0bIWUbWMhhME-87" edge="1">
          <mxGeometry relative="1" as="geometry" />
        </mxCell>
        <mxCell id="WVUbfzbR0bIWUbWMhhME-92" value="" style="edgeStyle=orthogonalEdgeStyle;rounded=0;orthogonalLoop=1;jettySize=auto;html=1;labelBackgroundColor=none;fontColor=default;" parent="1" source="WVUbfzbR0bIWUbWMhhME-85" target="WVUbfzbR0bIWUbWMhhME-91" edge="1">
          <mxGeometry relative="1" as="geometry" />
        </mxCell>
        <mxCell id="WVUbfzbR0bIWUbWMhhME-93" value="执行" style="edgeLabel;html=1;align=center;verticalAlign=middle;resizable=0;points=[];fontColor=default;labelBackgroundColor=none;" parent="WVUbfzbR0bIWUbWMhhME-92" vertex="1" connectable="0">
          <mxGeometry x="-0.2004" y="4" relative="1" as="geometry">
            <mxPoint x="1" as="offset" />
          </mxGeometry>
        </mxCell>
        <mxCell id="WVUbfzbR0bIWUbWMhhME-85" value="遍历任务队列调用任务workLoop" style="whiteSpace=wrap;html=1;fontColor=default;rounded=0;labelBackgroundColor=none;" parent="1" vertex="1">
          <mxGeometry x="1635" y="5020" width="120" height="60" as="geometry" />
        </mxCell>
        <mxCell id="WVUbfzbR0bIWUbWMhhME-172" style="edgeStyle=orthogonalEdgeStyle;rounded=0;orthogonalLoop=1;jettySize=auto;html=1;entryX=0.5;entryY=0;entryDx=0;entryDy=0;dashed=1;labelBackgroundColor=none;fontColor=default;startArrow=none;startFill=0;" parent="1" source="WVUbfzbR0bIWUbWMhhME-87" target="WVUbfzbR0bIWUbWMhhME-42" edge="1">
          <mxGeometry relative="1" as="geometry">
            <Array as="points">
              <mxPoint x="1990" y="5190" />
              <mxPoint x="1990" y="1770" />
              <mxPoint x="1695" y="1770" />
            </Array>
          </mxGeometry>
        </mxCell>
        <mxCell id="WVUbfzbR0bIWUbWMhhME-87" value="恢复当前优先级&lt;br&gt;重置当前执行task&lt;br&gt;重置&lt;span style=&quot;font-family: Consolas, &amp;quot;Courier New&amp;quot;, monospace; font-size: 14px;&quot;&gt;isPerformingWork正在遍历调用任务&lt;/span&gt;" style="whiteSpace=wrap;html=1;fontColor=default;rounded=0;labelBackgroundColor=none;" parent="1" vertex="1">
          <mxGeometry x="1597.5" y="5160" width="195" height="60" as="geometry" />
        </mxCell>
        <mxCell id="WVUbfzbR0bIWUbWMhhME-95" value="" style="edgeStyle=orthogonalEdgeStyle;rounded=0;orthogonalLoop=1;jettySize=auto;html=1;labelBackgroundColor=none;fontColor=default;" parent="1" source="WVUbfzbR0bIWUbWMhhME-91" target="WVUbfzbR0bIWUbWMhhME-94" edge="1">
          <mxGeometry relative="1" as="geometry" />
        </mxCell>
        <mxCell id="WVUbfzbR0bIWUbWMhhME-91" value="根据当前开始调度时间，整理小顶堆" style="whiteSpace=wrap;html=1;fontColor=default;rounded=0;labelBackgroundColor=none;" parent="1" vertex="1">
          <mxGeometry x="1244.37" y="5020" width="120" height="60" as="geometry" />
        </mxCell>
        <mxCell id="WVUbfzbR0bIWUbWMhhME-97" value="" style="edgeStyle=orthogonalEdgeStyle;rounded=0;orthogonalLoop=1;jettySize=auto;html=1;labelBackgroundColor=none;fontColor=default;" parent="1" source="WVUbfzbR0bIWUbWMhhME-94" target="WVUbfzbR0bIWUbWMhhME-96" edge="1">
          <mxGeometry relative="1" as="geometry" />
        </mxCell>
        <mxCell id="WVUbfzbR0bIWUbWMhhME-94" value="从任务队列获取第一个调用的任务&lt;span style=&quot;font-family: Consolas, &amp;quot;Courier New&amp;quot;, monospace; font-size: 14px;&quot;&gt;currentTask&lt;/span&gt;" style="whiteSpace=wrap;html=1;fontColor=default;rounded=0;labelBackgroundColor=none;" parent="1" vertex="1">
          <mxGeometry x="1244.37" y="5160" width="120" height="60" as="geometry" />
        </mxCell>
        <mxCell id="WVUbfzbR0bIWUbWMhhME-101" value="是" style="edgeStyle=orthogonalEdgeStyle;rounded=0;orthogonalLoop=1;jettySize=auto;html=1;labelBackgroundColor=none;fontColor=default;" parent="1" source="WVUbfzbR0bIWUbWMhhME-96" target="WVUbfzbR0bIWUbWMhhME-100" edge="1">
          <mxGeometry relative="1" as="geometry" />
        </mxCell>
        <mxCell id="WVUbfzbR0bIWUbWMhhME-136" value="否" style="edgeStyle=orthogonalEdgeStyle;rounded=0;orthogonalLoop=1;jettySize=auto;html=1;labelBackgroundColor=none;fontColor=default;" parent="1" source="WVUbfzbR0bIWUbWMhhME-96" target="WVUbfzbR0bIWUbWMhhME-135" edge="1">
          <mxGeometry x="-0.6507" relative="1" as="geometry">
            <mxPoint as="offset" />
          </mxGeometry>
        </mxCell>
        <mxCell id="WVUbfzbR0bIWUbWMhhME-96" value="当前task是否存在？" style="rhombus;whiteSpace=wrap;html=1;fontColor=default;rounded=0;labelBackgroundColor=none;" parent="1" vertex="1">
          <mxGeometry x="1226.55" y="5400" width="155.63" height="80" as="geometry" />
        </mxCell>
        <mxCell id="WVUbfzbR0bIWUbWMhhME-105" value="否" style="edgeStyle=orthogonalEdgeStyle;rounded=0;orthogonalLoop=1;jettySize=auto;html=1;labelBackgroundColor=none;fontColor=default;" parent="1" source="WVUbfzbR0bIWUbWMhhME-100" target="WVUbfzbR0bIWUbWMhhME-104" edge="1">
          <mxGeometry relative="1" as="geometry" />
        </mxCell>
        <mxCell id="WVUbfzbR0bIWUbWMhhME-183" value="" style="edgeStyle=orthogonalEdgeStyle;rounded=0;orthogonalLoop=1;jettySize=auto;html=1;labelBackgroundColor=none;fontColor=default;startArrow=none;startFill=0;" parent="1" source="WVUbfzbR0bIWUbWMhhME-100" target="WVUbfzbR0bIWUbWMhhME-182" edge="1">
          <mxGeometry relative="1" as="geometry">
            <Array as="points">
              <mxPoint x="1304" y="5770" />
            </Array>
          </mxGeometry>
        </mxCell>
        <mxCell id="WVUbfzbR0bIWUbWMhhME-100" value="当前任务过期时间是否大于当前时间？并且不在任务调用中或需要中断？" style="rhombus;whiteSpace=wrap;html=1;fontColor=default;rounded=0;labelBackgroundColor=none;" parent="1" vertex="1">
          <mxGeometry x="1151.55" y="5560" width="305.64" height="120" as="geometry" />
        </mxCell>
        <mxCell id="WVUbfzbR0bIWUbWMhhME-107" value="是" style="edgeStyle=orthogonalEdgeStyle;rounded=0;orthogonalLoop=1;jettySize=auto;html=1;labelBackgroundColor=none;fontColor=default;" parent="1" source="WVUbfzbR0bIWUbWMhhME-104" target="WVUbfzbR0bIWUbWMhhME-106" edge="1">
          <mxGeometry relative="1" as="geometry" />
        </mxCell>
        <mxCell id="WVUbfzbR0bIWUbWMhhME-129" value="" style="edgeStyle=orthogonalEdgeStyle;rounded=0;orthogonalLoop=1;jettySize=auto;html=1;labelBackgroundColor=none;fontColor=default;" parent="1" source="WVUbfzbR0bIWUbWMhhME-104" target="WVUbfzbR0bIWUbWMhhME-128" edge="1">
          <mxGeometry relative="1" as="geometry" />
        </mxCell>
        <mxCell id="WVUbfzbR0bIWUbWMhhME-204" value="否" style="edgeLabel;html=1;align=center;verticalAlign=middle;resizable=0;points=[];fontColor=default;" parent="WVUbfzbR0bIWUbWMhhME-129" vertex="1" connectable="0">
          <mxGeometry x="-0.2786" y="3" relative="1" as="geometry">
            <mxPoint as="offset" />
          </mxGeometry>
        </mxCell>
        <mxCell id="WVUbfzbR0bIWUbWMhhME-104" value="获取当前任务回调，并且回调是函数？" style="rhombus;whiteSpace=wrap;html=1;fontColor=default;rounded=0;labelBackgroundColor=none;" parent="1" vertex="1">
          <mxGeometry x="1650.01" y="5580" width="249.99" height="80" as="geometry" />
        </mxCell>
        <mxCell id="WVUbfzbR0bIWUbWMhhME-109" value="" style="edgeStyle=orthogonalEdgeStyle;rounded=0;orthogonalLoop=1;jettySize=auto;html=1;labelBackgroundColor=none;fontColor=default;" parent="1" source="WVUbfzbR0bIWUbWMhhME-106" target="WVUbfzbR0bIWUbWMhhME-108" edge="1">
          <mxGeometry relative="1" as="geometry" />
        </mxCell>
        <mxCell id="WVUbfzbR0bIWUbWMhhME-106" value="重置任务的回调，表示已经调用，并且设置当前优先级为当前调用任务的优先级" style="whiteSpace=wrap;html=1;fontColor=default;rounded=0;labelBackgroundColor=none;" parent="1" vertex="1">
          <mxGeometry x="1672.51" y="5750" width="204.99" height="60" as="geometry" />
        </mxCell>
        <mxCell id="WVUbfzbR0bIWUbWMhhME-113" value="" style="edgeStyle=orthogonalEdgeStyle;rounded=0;orthogonalLoop=1;jettySize=auto;html=1;labelBackgroundColor=none;fontColor=default;" parent="1" source="WVUbfzbR0bIWUbWMhhME-108" target="WVUbfzbR0bIWUbWMhhME-112" edge="1">
          <mxGeometry relative="1" as="geometry" />
        </mxCell>
        <mxCell id="WVUbfzbR0bIWUbWMhhME-125" value="" style="edgeStyle=orthogonalEdgeStyle;rounded=0;orthogonalLoop=1;jettySize=auto;html=1;labelBackgroundColor=none;fontColor=default;" parent="1" source="WVUbfzbR0bIWUbWMhhME-108" target="WVUbfzbR0bIWUbWMhhME-124" edge="1">
          <mxGeometry relative="1" as="geometry" />
        </mxCell>
        <mxCell id="WVUbfzbR0bIWUbWMhhME-108" value="调用回调，并传入当前任务调用时是否已经过期标识，最后获取回调返回值" style="whiteSpace=wrap;html=1;fontColor=default;rounded=0;labelBackgroundColor=none;" parent="1" vertex="1">
          <mxGeometry x="1687.51" y="5890" width="174.99" height="60" as="geometry" />
        </mxCell>
        <mxCell id="WVUbfzbR0bIWUbWMhhME-115" value="是" style="edgeStyle=orthogonalEdgeStyle;rounded=0;orthogonalLoop=1;jettySize=auto;html=1;labelBackgroundColor=none;fontColor=default;" parent="1" source="WVUbfzbR0bIWUbWMhhME-112" target="WVUbfzbR0bIWUbWMhhME-114" edge="1">
          <mxGeometry relative="1" as="geometry" />
        </mxCell>
        <mxCell id="WVUbfzbR0bIWUbWMhhME-120" value="" style="edgeStyle=orthogonalEdgeStyle;rounded=0;orthogonalLoop=1;jettySize=auto;html=1;labelBackgroundColor=none;fontColor=default;" parent="1" source="WVUbfzbR0bIWUbWMhhME-112" target="WVUbfzbR0bIWUbWMhhME-119" edge="1">
          <mxGeometry relative="1" as="geometry" />
        </mxCell>
        <mxCell id="WVUbfzbR0bIWUbWMhhME-121" value="否" style="edgeLabel;html=1;align=center;verticalAlign=middle;resizable=0;points=[];fontColor=default;labelBackgroundColor=none;" parent="WVUbfzbR0bIWUbWMhhME-120" vertex="1" connectable="0">
          <mxGeometry x="-0.1103" y="3" relative="1" as="geometry">
            <mxPoint x="1" as="offset" />
          </mxGeometry>
        </mxCell>
        <mxCell id="WVUbfzbR0bIWUbWMhhME-112" value="返回值是否是函数？" style="rhombus;whiteSpace=wrap;html=1;fontColor=default;rounded=0;labelBackgroundColor=none;" parent="1" vertex="1">
          <mxGeometry x="1692.51" y="6020" width="164.99" height="80" as="geometry" />
        </mxCell>
        <mxCell id="WVUbfzbR0bIWUbWMhhME-175" style="edgeStyle=orthogonalEdgeStyle;rounded=0;orthogonalLoop=1;jettySize=auto;html=1;entryX=0;entryY=0.5;entryDx=0;entryDy=0;labelBackgroundColor=none;fontColor=default;startArrow=none;startFill=0;" parent="1" source="WVUbfzbR0bIWUbWMhhME-114" target="WVUbfzbR0bIWUbWMhhME-124" edge="1">
          <mxGeometry relative="1" as="geometry">
            <Array as="points">
              <mxPoint x="1775" y="6370" />
            </Array>
          </mxGeometry>
        </mxCell>
        <mxCell id="WVUbfzbR0bIWUbWMhhME-114" value="再次设置当前任务回调为返回值" style="whiteSpace=wrap;html=1;fontColor=default;rounded=0;labelBackgroundColor=none;" parent="1" vertex="1">
          <mxGeometry x="1715.005" y="6190" width="120" height="60" as="geometry" />
        </mxCell>
        <mxCell id="WVUbfzbR0bIWUbWMhhME-123" value="是" style="edgeStyle=orthogonalEdgeStyle;rounded=0;orthogonalLoop=1;jettySize=auto;html=1;labelBackgroundColor=none;fontColor=default;" parent="1" source="WVUbfzbR0bIWUbWMhhME-119" target="WVUbfzbR0bIWUbWMhhME-122" edge="1">
          <mxGeometry relative="1" as="geometry" />
        </mxCell>
        <mxCell id="WVUbfzbR0bIWUbWMhhME-202" style="edgeStyle=orthogonalEdgeStyle;rounded=0;orthogonalLoop=1;jettySize=auto;html=1;entryX=0;entryY=0.5;entryDx=0;entryDy=0;labelBackgroundColor=none;fontColor=default;startArrow=none;startFill=0;" parent="1" source="WVUbfzbR0bIWUbWMhhME-119" target="WVUbfzbR0bIWUbWMhhME-124" edge="1">
          <mxGeometry relative="1" as="geometry">
            <Array as="points">
              <mxPoint x="1160" y="6060" />
              <mxPoint x="1160" y="6370" />
            </Array>
          </mxGeometry>
        </mxCell>
        <mxCell id="WVUbfzbR0bIWUbWMhhME-203" value="否" style="edgeLabel;html=1;align=center;verticalAlign=middle;resizable=0;points=[];fontColor=default;" parent="WVUbfzbR0bIWUbWMhhME-202" vertex="1" connectable="0">
          <mxGeometry x="-0.8154" y="-5" relative="1" as="geometry">
            <mxPoint y="-1" as="offset" />
          </mxGeometry>
        </mxCell>
        <mxCell id="WVUbfzbR0bIWUbWMhhME-119" value="继续获取任务队列任务，获取的任务是当前task？" style="rhombus;whiteSpace=wrap;html=1;fontColor=default;rounded=0;labelBackgroundColor=none;" parent="1" vertex="1">
          <mxGeometry x="1194.37" y="6020" width="220" height="80" as="geometry" />
        </mxCell>
        <mxCell id="WVUbfzbR0bIWUbWMhhME-127" style="edgeStyle=orthogonalEdgeStyle;rounded=0;orthogonalLoop=1;jettySize=auto;html=1;entryX=0;entryY=0.5;entryDx=0;entryDy=0;labelBackgroundColor=none;fontColor=default;" parent="1" source="WVUbfzbR0bIWUbWMhhME-122" target="WVUbfzbR0bIWUbWMhhME-124" edge="1">
          <mxGeometry relative="1" as="geometry">
            <Array as="points">
              <mxPoint x="1304" y="6370" />
            </Array>
          </mxGeometry>
        </mxCell>
        <mxCell id="WVUbfzbR0bIWUbWMhhME-122" value="从任务队列中移除当前任务" style="whiteSpace=wrap;html=1;fontColor=default;rounded=0;labelBackgroundColor=none;" parent="1" vertex="1">
          <mxGeometry x="1244.37" y="6190" width="120" height="60" as="geometry" />
        </mxCell>
        <mxCell id="WVUbfzbR0bIWUbWMhhME-132" style="edgeStyle=orthogonalEdgeStyle;rounded=0;orthogonalLoop=1;jettySize=auto;html=1;entryX=0.5;entryY=1;entryDx=0;entryDy=0;labelBackgroundColor=none;fontColor=default;" parent="1" source="WVUbfzbR0bIWUbWMhhME-124" target="WVUbfzbR0bIWUbWMhhME-130" edge="1">
          <mxGeometry relative="1" as="geometry" />
        </mxCell>
        <mxCell id="WVUbfzbR0bIWUbWMhhME-124" value="根据当前时间，整理小顶堆" style="whiteSpace=wrap;html=1;fontColor=default;rounded=0;labelBackgroundColor=none;" parent="1" vertex="1">
          <mxGeometry x="2091.255" y="6340" width="120" height="60" as="geometry" />
        </mxCell>
        <mxCell id="WVUbfzbR0bIWUbWMhhME-131" value="" style="edgeStyle=orthogonalEdgeStyle;rounded=0;orthogonalLoop=1;jettySize=auto;html=1;labelBackgroundColor=none;fontColor=default;" parent="1" source="WVUbfzbR0bIWUbWMhhME-128" target="WVUbfzbR0bIWUbWMhhME-130" edge="1">
          <mxGeometry relative="1" as="geometry" />
        </mxCell>
        <mxCell id="WVUbfzbR0bIWUbWMhhME-128" value="移除任务队列队首任务" style="whiteSpace=wrap;html=1;fontColor=default;rounded=0;labelBackgroundColor=none;" parent="1" vertex="1">
          <mxGeometry x="2076.8900000000003" y="5590" width="148.74" height="60" as="geometry" />
        </mxCell>
        <mxCell id="WVUbfzbR0bIWUbWMhhME-134" value="遍历获取任务队列中任务" style="edgeStyle=orthogonalEdgeStyle;rounded=0;orthogonalLoop=1;jettySize=auto;html=1;entryX=0.5;entryY=0;entryDx=0;entryDy=0;labelBackgroundColor=none;fontColor=default;" parent="1" source="WVUbfzbR0bIWUbWMhhME-130" target="WVUbfzbR0bIWUbWMhhME-96" edge="1">
          <mxGeometry x="0.9431" y="-4" relative="1" as="geometry">
            <Array as="points">
              <mxPoint x="2380" y="5330" />
              <mxPoint x="1305" y="5330" />
            </Array>
            <mxPoint y="1" as="offset" />
          </mxGeometry>
        </mxCell>
        <mxCell id="WVUbfzbR0bIWUbWMhhME-130" value="从任务队列获取下一个任务" style="whiteSpace=wrap;html=1;fontColor=default;rounded=0;labelBackgroundColor=none;" parent="1" vertex="1">
          <mxGeometry x="2320" y="5590" width="120" height="60" as="geometry" />
        </mxCell>
        <mxCell id="WVUbfzbR0bIWUbWMhhME-138" value="是" style="edgeStyle=orthogonalEdgeStyle;rounded=0;orthogonalLoop=1;jettySize=auto;html=1;labelBackgroundColor=none;fontColor=default;" parent="1" source="WVUbfzbR0bIWUbWMhhME-135" target="WVUbfzbR0bIWUbWMhhME-137" edge="1">
          <mxGeometry relative="1" as="geometry" />
        </mxCell>
        <mxCell id="WVUbfzbR0bIWUbWMhhME-140" value="否，执行，并且返回false" style="edgeStyle=orthogonalEdgeStyle;rounded=0;orthogonalLoop=1;jettySize=auto;html=1;entryX=0.5;entryY=1;entryDx=0;entryDy=0;labelBackgroundColor=none;fontColor=default;" parent="1" source="WVUbfzbR0bIWUbWMhhME-135" target="WVUbfzbR0bIWUbWMhhME-63" edge="1">
          <mxGeometry x="-0.9608" relative="1" as="geometry">
            <Array as="points">
              <mxPoint x="580" y="5440" />
              <mxPoint x="580" y="2420" />
              <mxPoint x="1348" y="2420" />
            </Array>
            <mxPoint as="offset" />
          </mxGeometry>
        </mxCell>
        <mxCell id="WVUbfzbR0bIWUbWMhhME-171" style="edgeStyle=orthogonalEdgeStyle;rounded=0;orthogonalLoop=1;jettySize=auto;html=1;entryX=0.5;entryY=0;entryDx=0;entryDy=0;labelBackgroundColor=none;fontColor=default;startArrow=none;startFill=0;dashed=1;" parent="1" source="WVUbfzbR0bIWUbWMhhME-135" target="WVUbfzbR0bIWUbWMhhME-158" edge="1">
          <mxGeometry relative="1" as="geometry">
            <Array as="points">
              <mxPoint x="885" y="3550" />
              <mxPoint x="1693" y="3550" />
            </Array>
          </mxGeometry>
        </mxCell>
        <mxCell id="WVUbfzbR0bIWUbWMhhME-176" value="返回" style="edgeLabel;html=1;align=center;verticalAlign=middle;resizable=0;points=[];fontColor=default;labelBackgroundColor=none;" parent="WVUbfzbR0bIWUbWMhhME-171" vertex="1" connectable="0">
          <mxGeometry x="-0.9362" y="5" relative="1" as="geometry">
            <mxPoint as="offset" />
          </mxGeometry>
        </mxCell>
        <mxCell id="WVUbfzbR0bIWUbWMhhME-135" value="当前task是否存在？" style="rhombus;whiteSpace=wrap;html=1;fontColor=default;rounded=0;labelBackgroundColor=none;" parent="1" vertex="1">
          <mxGeometry x="810" y="5400" width="150" height="80" as="geometry" />
        </mxCell>
        <mxCell id="WVUbfzbR0bIWUbWMhhME-137" value="返回true" style="whiteSpace=wrap;html=1;fontColor=default;rounded=0;labelBackgroundColor=none;" parent="1" vertex="1">
          <mxGeometry x="825" y="5590" width="120" height="60" as="geometry" />
        </mxCell>
        <mxCell id="WVUbfzbR0bIWUbWMhhME-147" value="是" style="edgeStyle=orthogonalEdgeStyle;rounded=0;orthogonalLoop=1;jettySize=auto;html=1;labelBackgroundColor=none;fontColor=default;" parent="1" source="WVUbfzbR0bIWUbWMhhME-145" target="WVUbfzbR0bIWUbWMhhME-146" edge="1">
          <mxGeometry relative="1" as="geometry" />
        </mxCell>
        <mxCell id="WVUbfzbR0bIWUbWMhhME-164" value="否" style="edgeStyle=orthogonalEdgeStyle;rounded=0;orthogonalLoop=1;jettySize=auto;html=1;labelBackgroundColor=none;fontColor=default;" parent="1" source="WVUbfzbR0bIWUbWMhhME-145" target="WVUbfzbR0bIWUbWMhhME-163" edge="1">
          <mxGeometry relative="1" as="geometry" />
        </mxCell>
        <mxCell id="WVUbfzbR0bIWUbWMhhME-145" value="当前调度回调是否存在（flushWork）?" style="rhombus;whiteSpace=wrap;html=1;labelBackgroundColor=none;fontColor=default;" parent="1" vertex="1">
          <mxGeometry x="1562.5199999999998" y="3110" width="260" height="80" as="geometry" />
        </mxCell>
        <mxCell id="WVUbfzbR0bIWUbWMhhME-149" value="" style="edgeStyle=orthogonalEdgeStyle;rounded=0;orthogonalLoop=1;jettySize=auto;html=1;labelBackgroundColor=none;fontColor=default;" parent="1" source="WVUbfzbR0bIWUbWMhhME-146" target="WVUbfzbR0bIWUbWMhhME-148" edge="1">
          <mxGeometry relative="1" as="geometry" />
        </mxCell>
        <mxCell id="WVUbfzbR0bIWUbWMhhME-146" value="根据时间片和当前时间，获取可执行的ddl时间点" style="whiteSpace=wrap;html=1;labelBackgroundColor=none;fontColor=default;" parent="1" vertex="1">
          <mxGeometry x="1607.5199999999998" y="3280" width="170" height="60" as="geometry" />
        </mxCell>
        <mxCell id="WVUbfzbR0bIWUbWMhhME-159" value="调用flushwork获取返回值hasMoreWork" style="edgeStyle=orthogonalEdgeStyle;rounded=0;orthogonalLoop=1;jettySize=auto;html=1;labelBackgroundColor=none;fontColor=default;dashed=1;" parent="1" source="WVUbfzbR0bIWUbWMhhME-148" target="WVUbfzbR0bIWUbWMhhME-158" edge="1">
          <mxGeometry relative="1" as="geometry" />
        </mxCell>
        <mxCell id="WVUbfzbR0bIWUbWMhhME-169" style="edgeStyle=orthogonalEdgeStyle;rounded=0;orthogonalLoop=1;jettySize=auto;html=1;entryX=0;entryY=0.5;entryDx=0;entryDy=0;labelBackgroundColor=none;fontColor=default;exitX=0.5;exitY=0;exitDx=0;exitDy=0;startArrow=none;startFill=0;" parent="1" source="WVUbfzbR0bIWUbWMhhME-158" target="WVUbfzbR0bIWUbWMhhME-72" edge="1">
          <mxGeometry relative="1" as="geometry">
            <Array as="points">
              <mxPoint x="1693" y="3550" />
              <mxPoint x="1500" y="3550" />
              <mxPoint x="1500" y="4190" />
            </Array>
          </mxGeometry>
        </mxCell>
        <mxCell id="WVUbfzbR0bIWUbWMhhME-148" value="&lt;div style=&quot;font-family: Consolas, &amp;quot;Courier New&amp;quot;, monospace; font-size: 14px; line-height: 19px;&quot;&gt;&lt;span style=&quot;&quot;&gt;设置hasTimeRemaining&lt;/span&gt;&lt;/div&gt;&lt;div style=&quot;font-family: Consolas, &amp;quot;Courier New&amp;quot;, monospace; font-size: 14px; line-height: 19px;&quot;&gt;&lt;font&gt;表示正在执行一个任务&lt;/font&gt;&lt;/div&gt;" style="whiteSpace=wrap;html=1;labelBackgroundColor=none;fontColor=default;" parent="1" vertex="1">
          <mxGeometry x="1587.5199999999998" y="3420" width="210" height="60" as="geometry" />
        </mxCell>
        <mxCell id="WVUbfzbR0bIWUbWMhhME-160" value="是" style="edgeStyle=orthogonalEdgeStyle;rounded=0;orthogonalLoop=1;jettySize=auto;html=1;entryX=0.5;entryY=0;entryDx=0;entryDy=0;labelBackgroundColor=none;fontColor=default;" parent="1" source="WVUbfzbR0bIWUbWMhhME-158" target="WVUbfzbR0bIWUbWMhhME-61" edge="1">
          <mxGeometry x="-0.929" relative="1" as="geometry">
            <Array as="points">
              <mxPoint x="1930" y="3660" />
              <mxPoint x="1930" y="2930" />
              <mxPoint x="1695" y="2930" />
            </Array>
            <mxPoint x="-1" as="offset" />
          </mxGeometry>
        </mxCell>
        <mxCell id="WVUbfzbR0bIWUbWMhhME-162" value="否" style="edgeStyle=orthogonalEdgeStyle;rounded=0;orthogonalLoop=1;jettySize=auto;html=1;labelBackgroundColor=none;fontColor=default;" parent="1" source="WVUbfzbR0bIWUbWMhhME-158" target="WVUbfzbR0bIWUbWMhhME-161" edge="1">
          <mxGeometry relative="1" as="geometry" />
        </mxCell>
        <mxCell id="WVUbfzbR0bIWUbWMhhME-158" value="是否有更多任务待调用？" style="rhombus;whiteSpace=wrap;html=1;labelBackgroundColor=none;fontColor=default;" parent="1" vertex="1">
          <mxGeometry x="1607.5199999999998" y="3620" width="170" height="80" as="geometry" />
        </mxCell>
        <mxCell id="WVUbfzbR0bIWUbWMhhME-166" value="" style="edgeStyle=orthogonalEdgeStyle;rounded=0;orthogonalLoop=1;jettySize=auto;html=1;labelBackgroundColor=none;fontColor=default;" parent="1" source="WVUbfzbR0bIWUbWMhhME-161" target="WVUbfzbR0bIWUbWMhhME-165" edge="1">
          <mxGeometry relative="1" as="geometry" />
        </mxCell>
        <mxCell id="WVUbfzbR0bIWUbWMhhME-161" value="重置&lt;span style=&quot;font-family: Consolas, &amp;quot;Courier New&amp;quot;, monospace; font-size: 14px;&quot;&gt;isMessageLoopRunning和&lt;/span&gt;&lt;span style=&quot;font-family: Consolas, &amp;quot;Courier New&amp;quot;, monospace; font-size: 14px;&quot;&gt;scheduledHostCallback（flushWork）&lt;/span&gt;" style="whiteSpace=wrap;html=1;labelBackgroundColor=none;fontColor=default;" parent="1" vertex="1">
          <mxGeometry x="1572.5199999999998" y="3790" width="240" height="60" as="geometry" />
        </mxCell>
        <mxCell id="WVUbfzbR0bIWUbWMhhME-167" style="edgeStyle=orthogonalEdgeStyle;rounded=0;orthogonalLoop=1;jettySize=auto;html=1;entryX=0;entryY=0.5;entryDx=0;entryDy=0;labelBackgroundColor=none;fontColor=default;" parent="1" source="WVUbfzbR0bIWUbWMhhME-163" target="WVUbfzbR0bIWUbWMhhME-165" edge="1">
          <mxGeometry relative="1" as="geometry">
            <Array as="points">
              <mxPoint x="1371" y="3960" />
            </Array>
          </mxGeometry>
        </mxCell>
        <mxCell id="WVUbfzbR0bIWUbWMhhME-163" value="重置&lt;span style=&quot;font-family: Consolas, &amp;quot;Courier New&amp;quot;, monospace; font-size: 14px;&quot;&gt;isMessageLoopRunning&lt;/span&gt;" style="whiteSpace=wrap;html=1;labelBackgroundColor=none;fontColor=default;" parent="1" vertex="1">
          <mxGeometry x="1311.25" y="3120" width="120" height="60" as="geometry" />
        </mxCell>
        <mxCell id="WVUbfzbR0bIWUbWMhhME-170" style="edgeStyle=orthogonalEdgeStyle;rounded=0;orthogonalLoop=1;jettySize=auto;html=1;entryX=0.5;entryY=0;entryDx=0;entryDy=0;labelBackgroundColor=none;fontColor=default;startArrow=none;startFill=0;dashed=1;" parent="1" source="WVUbfzbR0bIWUbWMhhME-165" target="WVUbfzbR0bIWUbWMhhME-42" edge="1">
          <mxGeometry relative="1" as="geometry">
            <Array as="points">
              <mxPoint x="1990" y="3960" />
              <mxPoint x="1990" y="1770" />
              <mxPoint x="1695" y="1770" />
            </Array>
          </mxGeometry>
        </mxCell>
        <mxCell id="WVUbfzbR0bIWUbWMhhME-165" value="重置&lt;span style=&quot;font-family: Consolas, &amp;quot;Courier New&amp;quot;, monospace; font-size: 14px;&quot;&gt;needsPaint&lt;br&gt;表示完成绘制&lt;br&gt;&lt;/span&gt;" style="whiteSpace=wrap;html=1;labelBackgroundColor=none;fontColor=default;" parent="1" vertex="1">
          <mxGeometry x="1632.5199999999998" y="3930" width="120" height="60" as="geometry" />
        </mxCell>
        <mxCell id="WVUbfzbR0bIWUbWMhhME-186" value="返回" style="edgeStyle=orthogonalEdgeStyle;rounded=0;orthogonalLoop=1;jettySize=auto;html=1;labelBackgroundColor=none;fontColor=default;startArrow=classic;startFill=1;dashed=1;dashPattern=1 1;exitX=1;exitY=0.5;exitDx=0;exitDy=0;" parent="1" source="WVUbfzbR0bIWUbWMhhME-182" target="WVUbfzbR0bIWUbWMhhME-185" edge="1">
          <mxGeometry relative="1" as="geometry">
            <Array as="points">
              <mxPoint x="1420" y="5760" />
              <mxPoint x="1420" y="5840" />
              <mxPoint x="717" y="5840" />
            </Array>
          </mxGeometry>
        </mxCell>
        <mxCell id="WVUbfzbR0bIWUbWMhhME-200" style="edgeStyle=orthogonalEdgeStyle;rounded=0;orthogonalLoop=1;jettySize=auto;html=1;entryX=1;entryY=0.5;entryDx=0;entryDy=0;labelBackgroundColor=none;fontColor=default;startArrow=none;startFill=0;" parent="1" source="WVUbfzbR0bIWUbWMhhME-182" target="WVUbfzbR0bIWUbWMhhME-135" edge="1">
          <mxGeometry relative="1" as="geometry">
            <Array as="points">
              <mxPoint x="1091" y="5760" />
              <mxPoint x="1091" y="5440" />
            </Array>
          </mxGeometry>
        </mxCell>
        <mxCell id="WVUbfzbR0bIWUbWMhhME-201" value="是" style="edgeLabel;html=1;align=center;verticalAlign=middle;resizable=0;points=[];fontColor=default;labelBackgroundColor=none;" parent="WVUbfzbR0bIWUbWMhhME-200" vertex="1" connectable="0">
          <mxGeometry x="-0.2158" y="-3" relative="1" as="geometry">
            <mxPoint y="1" as="offset" />
          </mxGeometry>
        </mxCell>
        <mxCell id="WVUbfzbR0bIWUbWMhhME-182" value="判断需要中断&lt;span style=&quot;font-family: Consolas, &amp;quot;Courier New&amp;quot;, monospace; font-size: 14px;&quot;&gt;shouldYieldToHost&lt;/span&gt;" style="whiteSpace=wrap;html=1;rounded=0;labelBackgroundColor=none;fontColor=default;" parent="1" vertex="1">
          <mxGeometry x="1221.55" y="5730" width="165.63" height="60" as="geometry" />
        </mxCell>
        <mxCell id="WVUbfzbR0bIWUbWMhhME-188" value="是" style="edgeStyle=orthogonalEdgeStyle;rounded=0;orthogonalLoop=1;jettySize=auto;html=1;labelBackgroundColor=none;fontColor=default;startArrow=none;startFill=0;entryX=0.5;entryY=0;entryDx=0;entryDy=0;" parent="1" source="WVUbfzbR0bIWUbWMhhME-185" target="WVUbfzbR0bIWUbWMhhME-189" edge="1">
          <mxGeometry relative="1" as="geometry">
            <mxPoint x="717.5" y="6090" as="targetPoint" />
          </mxGeometry>
        </mxCell>
        <mxCell id="WVUbfzbR0bIWUbWMhhME-198" style="edgeStyle=orthogonalEdgeStyle;rounded=0;orthogonalLoop=1;jettySize=auto;html=1;labelBackgroundColor=none;fontColor=default;startArrow=none;startFill=0;entryX=0.5;entryY=1;entryDx=0;entryDy=0;" parent="1" source="WVUbfzbR0bIWUbWMhhME-185" target="WVUbfzbR0bIWUbWMhhME-182" edge="1">
          <mxGeometry relative="1" as="geometry">
            <mxPoint x="1220" y="5760" as="targetPoint" />
            <Array as="points">
              <mxPoint x="1304" y="5960" />
            </Array>
          </mxGeometry>
        </mxCell>
        <mxCell id="WVUbfzbR0bIWUbWMhhME-199" value="否，返回当前时间&lt;br&gt;是否大于等于ddl" style="edgeLabel;html=1;align=center;verticalAlign=middle;resizable=0;points=[];fontColor=default;labelBackgroundColor=none;" parent="WVUbfzbR0bIWUbWMhhME-198" vertex="1" connectable="0">
          <mxGeometry x="-0.8958" y="2" relative="1" as="geometry">
            <mxPoint x="43" y="2" as="offset" />
          </mxGeometry>
        </mxCell>
        <mxCell id="WVUbfzbR0bIWUbWMhhME-185" value="是否启用输入中断，并且当前处于输入中断中？" style="rhombus;whiteSpace=wrap;html=1;rounded=0;labelBackgroundColor=none;fontColor=default;" parent="1" vertex="1">
          <mxGeometry x="620" y="5920" width="195" height="80" as="geometry" />
        </mxCell>
        <mxCell id="WVUbfzbR0bIWUbWMhhME-191" value="是" style="edgeStyle=orthogonalEdgeStyle;rounded=0;orthogonalLoop=1;jettySize=auto;html=1;labelBackgroundColor=none;fontColor=default;startArrow=none;startFill=0;" parent="1" source="WVUbfzbR0bIWUbWMhhME-189" target="WVUbfzbR0bIWUbWMhhME-190" edge="1">
          <mxGeometry relative="1" as="geometry" />
        </mxCell>
        <mxCell id="WVUbfzbR0bIWUbWMhhME-197" value="否，返回false" style="edgeStyle=orthogonalEdgeStyle;rounded=0;orthogonalLoop=1;jettySize=auto;html=1;entryX=0.5;entryY=1;entryDx=0;entryDy=0;labelBackgroundColor=none;fontColor=default;startArrow=none;startFill=0;" parent="1" source="WVUbfzbR0bIWUbWMhhME-189" target="WVUbfzbR0bIWUbWMhhME-182" edge="1">
          <mxGeometry x="-0.7524" relative="1" as="geometry">
            <Array as="points">
              <mxPoint x="1110" y="6130" />
              <mxPoint x="1110" y="5960" />
              <mxPoint x="1304" y="5960" />
            </Array>
            <mxPoint x="1" as="offset" />
          </mxGeometry>
        </mxCell>
        <mxCell id="WVUbfzbR0bIWUbWMhhME-189" value="&lt;span style=&quot;&quot;&gt;当前时间是否大于等于时间片ddl时间点？&lt;/span&gt;" style="rhombus;whiteSpace=wrap;html=1;labelBackgroundColor=none;fontColor=default;" parent="1" vertex="1">
          <mxGeometry x="635" y="6090" width="165" height="80" as="geometry" />
        </mxCell>
        <mxCell id="WVUbfzbR0bIWUbWMhhME-192" value="是，返回true" style="edgeStyle=orthogonalEdgeStyle;rounded=0;orthogonalLoop=1;jettySize=auto;html=1;labelBackgroundColor=none;fontColor=default;startArrow=none;startFill=0;" parent="1" source="WVUbfzbR0bIWUbWMhhME-190" edge="1">
          <mxGeometry x="-0.8048" relative="1" as="geometry">
            <mxPoint x="1304" y="5790" as="targetPoint" />
            <Array as="points">
              <mxPoint x="1110" y="6290" />
              <mxPoint x="1110" y="5960" />
              <mxPoint x="1304" y="5960" />
            </Array>
            <mxPoint as="offset" />
          </mxGeometry>
        </mxCell>
        <mxCell id="WVUbfzbR0bIWUbWMhhME-194" value="否" style="edgeStyle=orthogonalEdgeStyle;rounded=0;orthogonalLoop=1;jettySize=auto;html=1;labelBackgroundColor=none;fontColor=default;startArrow=none;startFill=0;" parent="1" source="WVUbfzbR0bIWUbWMhhME-190" target="WVUbfzbR0bIWUbWMhhME-193" edge="1">
          <mxGeometry relative="1" as="geometry" />
        </mxCell>
        <mxCell id="WVUbfzbR0bIWUbWMhhME-190" value="是否需要绘制或者当前处于输入中断？" style="rhombus;whiteSpace=wrap;html=1;labelBackgroundColor=none;fontColor=default;" parent="1" vertex="1">
          <mxGeometry x="640" y="6250" width="155" height="80" as="geometry" />
        </mxCell>
        <mxCell id="WVUbfzbR0bIWUbWMhhME-195" style="edgeStyle=orthogonalEdgeStyle;rounded=0;orthogonalLoop=1;jettySize=auto;html=1;entryX=0.5;entryY=1;entryDx=0;entryDy=0;labelBackgroundColor=none;fontColor=default;startArrow=none;startFill=0;" parent="1" source="WVUbfzbR0bIWUbWMhhME-193" target="WVUbfzbR0bIWUbWMhhME-182" edge="1">
          <mxGeometry relative="1" as="geometry">
            <Array as="points">
              <mxPoint x="1110" y="6450" />
              <mxPoint x="1110" y="5960" />
              <mxPoint x="1304" y="5960" />
            </Array>
          </mxGeometry>
        </mxCell>
        <mxCell id="WVUbfzbR0bIWUbWMhhME-196" value="返回值" style="edgeLabel;html=1;align=center;verticalAlign=middle;resizable=0;points=[];fontColor=default;labelBackgroundColor=none;" parent="WVUbfzbR0bIWUbWMhhME-195" vertex="1" connectable="0">
          <mxGeometry x="-0.7514" y="-3" relative="1" as="geometry">
            <mxPoint x="1" as="offset" />
          </mxGeometry>
        </mxCell>
        <mxCell id="WVUbfzbR0bIWUbWMhhME-193" value="返回当前已经执行时间是否大于等于最大执行时间" style="whiteSpace=wrap;html=1;labelBackgroundColor=none;fontColor=default;" parent="1" vertex="1">
          <mxGeometry x="657.5" y="6420" width="120" height="60" as="geometry" />
        </mxCell>
      </root>
    </mxGraphModel>
  </diagram>
</mxfile>
